<svg width="56" height="56" viewBox="0 0 56 56" fill="none" xmlns="http://www.w3.org/2000/svg">
<rect width="56" height="56" rx="28" fill="#BEEE62"/>
<g clip-path="url(#clip0_902_19127)">
<path fill-rule="evenodd" clip-rule="evenodd" d="M34.043 23.6693C35.7202 22.866 36 22.0798 36 21.5C36 20.9564 35.7541 20.2314 34.3414 19.4811C34.2472 19.4311 34.1478 19.3809 34.043 19.3307C32.3329 18.5117 29.702 18 26.5 18C23.298 18 20.6671 18.5117 18.957 19.3307C17.2798 20.134 17 20.9202 17 21.5C17 22.0798 17.2798 22.866 18.957 23.6693C20.6671 24.4883 23.298 25 26.5 25C29.702 25 32.3329 24.4883 34.043 23.6693ZM26.5 28C30.2636 28 33.6387 27.356 35.9303 26.0681C35.8129 28.7668 35.4988 31.2571 34.6616 33.2998C34.0549 34.78 33.2207 35.8853 32.0702 36.6472C30.9126 37.4138 29.1819 38 26.5 38C23.8182 38 22.0875 37.4138 20.9299 36.6472C19.7794 35.8853 18.9451 34.78 18.3384 33.2998C17.5013 31.2571 17.1871 28.7668 17.0696 26.0681C19.3613 27.356 22.7364 28 26.5 28ZM38.9923 21.2238C38.759 17.0746 33.2553 15 26.5 15C19.5964 15 14 17.1667 14 21.5C14 30 14.0001 41 26.5 41C33.2187 41 36.3261 37.8221 37.7633 33.5625C38.3205 33.3905 38.87 33.1948 39.3993 32.9753C40.6307 32.4646 41.9369 31.7503 42.9805 30.7515C44.0488 29.7291 45 28.2395 45 26.3162C45 25.4417 44.8064 24.5359 44.3106 23.7073C43.8126 22.8752 43.1175 22.3014 42.3988 21.9279C41.2721 21.3425 40.0238 21.2125 38.9923 21.2238ZM38.9858 24.2243C38.9561 26.1652 38.8641 28.1583 38.579 30.0625C40.5061 29.2009 42 27.9522 42 26.3162C42 24.7006 40.6888 24.1986 38.9858 24.2243Z" fill="#342CE8"/>
</g>
<defs>
<clipPath id="clip0_902_19127">
<rect width="32" height="32" fill="white" transform="translate(13 12)"/>
</clipPath>
</defs>
</svg>
