<svg width="22" height="22" viewBox="0 0 22 22" fill="none" xmlns="http://www.w3.org/2000/svg">
<path fill-rule="evenodd" clip-rule="evenodd" d="M16.25 9.5C16.25 13.2279 13.2279 16.25 9.5 16.25C5.77208 16.25 2.75 13.2279 2.75 9.5C2.75 5.77208 5.77208 2.75 9.5 2.75C13.2279 2.75 16.25 5.77208 16.25 9.5ZM15.0188 16.6098C13.4948 17.7945 11.5798 18.5 9.5 18.5C4.52944 18.5 0.5 14.4706 0.5 9.5C0.5 4.52944 4.52944 0.5 9.5 0.5C14.4706 0.5 18.5 4.52944 18.5 9.5C18.5 11.5798 17.7945 13.4948 16.6098 15.0188L20.7955 19.2045C21.2348 19.6438 21.2348 20.3561 20.7955 20.7955C20.3561 21.2348 19.6438 21.2348 19.2045 20.7955L15.0188 16.6098Z" fill="#212529"/>
</svg>
