<svg width="24" height="24" viewBox="0 0 24 24" fill="none" xmlns="http://www.w3.org/2000/svg">
<path fill-rule="evenodd" clip-rule="evenodd" d="M2.44935 4.19344C3.59255 2.93858 5.2233 2.24927 7.14 2.24927C8.88584 2.24927 10.7501 3.07443 11.9986 4.68739C13.2422 3.07527 15.0993 2.24927 16.86 2.24927C18.7705 2.24927 20.4008 2.93507 21.5455 4.18793C22.6798 5.42934 23.25 7.13035 23.25 9.01949C23.25 12.2675 21.5808 14.8816 19.4677 16.914C17.3592 18.942 14.7118 20.4879 12.517 21.6235C12.1912 21.792 11.8037 21.7912 11.4787 21.6212C9.28382 20.4735 6.63562 18.9391 4.52864 16.9209C2.41417 14.8956 0.75 12.2889 0.75 9.01949C0.75 7.13686 1.31707 5.43632 2.44935 4.19344ZM4.11262 5.70871C3.43008 6.45791 3 7.57998 3 9.01949C3 11.4548 4.22409 13.5136 6.085 15.2961C7.80462 16.9432 9.98667 18.2734 12.0023 19.3528C14.0059 18.2872 16.1874 16.9472 17.9079 15.2924C19.7738 13.4978 21 11.4307 21 9.01949C21 7.575 20.5677 6.4534 19.8845 5.70561C19.2117 4.96926 18.2095 4.49927 16.86 4.49927C15.3962 4.49927 13.7202 5.44032 13.0688 7.42235C12.917 7.88404 12.486 8.19609 12 8.19609C11.514 8.19609 11.083 7.88404 10.9312 7.42235C10.2805 5.44245 8.58783 4.49927 7.14 4.49927C5.786 4.49927 4.78424 4.97149 4.11262 5.70871Z" fill="#342CE8"/>
</svg>
