<svg width="24" height="24" viewBox="0 0 24 24" fill="none" xmlns="http://www.w3.org/2000/svg">
<path fill-rule="evenodd" clip-rule="evenodd" d="M7.14 2.24902C5.2233 2.24902 3.59255 2.93834 2.44935 4.1932C1.31707 5.43607 0.75 7.13662 0.75 9.01925C0.75 12.2887 2.41417 14.8954 4.52864 16.9207C6.63562 18.9388 9.28382 20.4733 11.4787 21.621C11.8037 21.7909 12.1912 21.7918 12.517 21.6232C14.7118 20.4877 17.3592 18.9418 19.4677 16.9138C21.5808 14.8814 23.25 12.2672 23.25 9.01925C23.25 7.13011 22.6798 5.4291 21.5455 4.18768C20.4008 2.93482 18.7705 2.24902 16.86 2.24902C15.2457 2.24902 13.9108 2.84627 12.896 3.97483C12.5561 4.35281 12.2593 4.78219 12 5.25525C11.7408 4.78219 11.4439 4.35281 11.104 3.97483C10.0892 2.84627 8.75426 2.24902 7.14 2.24902Z" fill="#342CE8"/>
</svg>
