<svg width="128" height="42" viewBox="0 0 128 42" fill="none" xmlns="http://www.w3.org/2000/svg">
<path d="M1.988 10.924H15.344V14.284H5.992V18.96H13.888V22.292H5.992V27.668H15.484V31H1.988V10.924ZM26.199 31H21.383L16.483 16.468H20.487L24.015 27.304L27.599 16.468H31.155L26.199 31ZM44.8365 30.048C44.6125 30.1787 44.3512 30.3187 44.0525 30.468C43.7725 30.5987 43.4272 30.7293 43.0165 30.86C42.6245 30.972 42.1579 31.0653 41.6165 31.14C41.0939 31.2333 40.4685 31.28 39.7405 31.28C36.9032 31.28 34.8032 30.6173 33.4405 29.292C32.0779 27.9667 31.3965 26.1093 31.3965 23.72C31.3965 22.544 31.5739 21.4893 31.9285 20.556C32.3019 19.6227 32.8152 18.8387 33.4685 18.204C34.1219 17.5507 34.8965 17.056 35.7925 16.72C36.7072 16.3653 37.7152 16.188 38.8165 16.188C39.9365 16.188 40.9445 16.3747 41.8405 16.748C42.7365 17.1027 43.4739 17.6347 44.0525 18.344C44.6499 19.0533 45.0605 19.9493 45.2845 21.032C45.5085 22.1147 45.5085 23.3653 45.2845 24.784H35.4285C35.5779 25.9227 35.9885 26.7813 36.6605 27.36C37.3512 27.92 38.4432 28.2 39.9365 28.2C41.1312 28.2 42.1019 28.0693 42.8485 27.808C43.6139 27.5467 44.2765 27.276 44.8365 26.996V30.048ZM38.8725 19.072C38.0139 19.072 37.2952 19.3333 36.7165 19.856C36.1379 20.3787 35.7459 21.1347 35.5405 22.124H41.5885C41.6072 21.0973 41.3832 20.332 40.9165 19.828C40.4499 19.324 39.7685 19.072 38.8725 19.072ZM55.0673 19.268C54.2833 19.268 53.6019 19.4267 53.0233 19.744C52.4633 20.0613 52.0059 20.472 51.6513 20.976V31H47.7873V16.468H51.4273L51.5953 18.652H51.6513C52.0433 17.9427 52.6219 17.3547 53.3873 16.888C54.1526 16.4213 55.1233 16.188 56.2993 16.188C56.9899 16.188 57.6339 16.2907 58.2313 16.496C58.8473 16.6827 59.3699 16.972 59.7993 17.364C60.2473 17.7373 60.5926 18.2133 60.8353 18.792C61.0966 19.3707 61.2273 20.052 61.2273 20.836V31H57.3353V21.256C57.3353 20.528 57.1299 20.0147 56.7193 19.716C56.3273 19.4173 55.7766 19.268 55.0673 19.268ZM72.4763 30.44C72.1029 30.6827 71.6456 30.8787 71.1043 31.028C70.5816 31.196 69.9283 31.28 69.1443 31.28C68.3043 31.28 67.6043 31.168 67.0443 30.944C66.4843 30.7013 66.0269 30.384 65.6723 29.992C65.3363 29.6 65.0936 29.1427 64.9443 28.62C64.7949 28.0787 64.7203 27.5 64.7203 26.884V19.52H62.9843V16.468H64.7203V13.416H68.5843V16.468H72.7003V19.52H68.5843V26.464C68.5843 27.0427 68.7149 27.472 68.9763 27.752C69.2376 28.032 69.6669 28.172 70.2643 28.172C70.7683 28.172 71.1976 28.0973 71.5523 27.948C71.9069 27.78 72.2149 27.584 72.4763 27.36V30.44Z" fill="#212529"/>
<path d="M87.9992 22.684H79.3192V31H75.3152V10.924H79.3192V19.352H87.9992V10.924H92.0032V31H87.9992V22.684ZM104.583 28.816C104.191 29.5067 103.622 30.0947 102.875 30.58C102.147 31.0467 101.176 31.28 99.9631 31.28C99.2724 31.28 98.6377 31.1867 98.0591 31C97.4804 30.7947 96.9764 30.4867 96.5471 30.076C96.1364 29.6653 95.8097 29.1613 95.5671 28.564C95.3431 27.9667 95.2311 27.2573 95.2311 26.436V16.468H99.1511V26.268C99.1511 27.0147 99.3564 27.5187 99.7671 27.78C100.196 28.0413 100.71 28.172 101.307 28.172C102.091 28.172 102.744 28.0227 103.267 27.724C103.79 27.4067 104.228 26.996 104.583 26.492V16.468H108.419V31H104.835L104.639 28.816H104.583ZM126.449 23.72C126.449 25.008 126.271 26.128 125.917 27.08C125.581 28.0133 125.123 28.7973 124.545 29.432C123.966 30.048 123.285 30.5147 122.501 30.832C121.717 31.1307 120.895 31.28 120.037 31.28C118.917 31.28 117.955 31.028 117.153 30.524C116.369 30.02 115.743 29.3387 115.277 28.48L115.137 31H111.497V10.924H115.361L115.333 18.792C115.818 17.9707 116.453 17.336 117.237 16.888C118.021 16.4213 118.963 16.188 120.065 16.188C120.923 16.188 121.735 16.3467 122.501 16.664C123.285 16.9627 123.966 17.4293 124.545 18.064C125.142 18.68 125.609 19.464 125.945 20.416C126.281 21.3493 126.449 22.4507 126.449 23.72ZM118.945 28.172C119.99 28.172 120.839 27.808 121.493 27.08C122.146 26.352 122.473 25.232 122.473 23.72C122.473 22.2267 122.146 21.116 121.493 20.388C120.839 19.6413 119.999 19.268 118.973 19.268C117.927 19.268 117.059 19.6413 116.369 20.388C115.678 21.116 115.333 22.2267 115.333 23.72C115.333 25.232 115.678 26.352 116.369 27.08C117.059 27.808 117.918 28.172 118.945 28.172Z" fill="#342CE8"/>
</svg>
